<?xml version="1.0" encoding="UTF-8" standalone="no"?>
<!-- Uploaded to: SVG Repo, www.svgrepo.com, Generator: SVG Repo Mixer Tools -->

<svg
   fill="#000000"
   width="800px"
   height="800px"
   viewBox="0 0 1000 1000"
   version="1.1"
   enable-background="new 0 0 1000 1000"
   xml:space="preserve"
   id="svg2"
   sodipodi:docname="triko_dim.svg"
   inkscape:version="1.4.3 (0d15f75, 2025-12-25)"
   xmlns:inkscape="http://www.inkscape.org/namespaces/inkscape"
   xmlns:sodipodi="http://sodipodi.sourceforge.net/DTD/sodipodi-0.dtd"
   xmlns="http://www.w3.org/2000/svg"
   xmlns:svg="http://www.w3.org/2000/svg"><defs
   id="defs2"><rect
     x="134.75625"
     y="78.527026"
     width="47.382822"
     height="69.438246"
     id="rect13" /><marker
     style="overflow:visible"
     id="marker3"
     refX="0"
     refY="0"
     orient="auto-start-reverse"
     inkscape:stockid="Triangle arrow"
     markerWidth="1"
     markerHeight="1"
     viewBox="0 0 1 1"
     inkscape:isstock="true"
     inkscape:collect="always"
     preserveAspectRatio="xMidYMid"><path
       transform="scale(0.5)"
       style="fill:context-stroke;fill-rule:evenodd;stroke:context-stroke;stroke-width:1pt"
       d="M 5.77,0 -2.88,5 V -5 Z"
       id="path3" /></marker><marker
     style="overflow:visible"
     id="Triangle"
     refX="0"
     refY="0"
     orient="auto-start-reverse"
     inkscape:stockid="Triangle arrow"
     markerWidth="1"
     markerHeight="1"
     viewBox="0 0 1 1"
     inkscape:isstock="true"
     inkscape:collect="always"
     preserveAspectRatio="xMidYMid"><path
       transform="scale(0.5)"
       style="fill:context-stroke;fill-rule:evenodd;stroke:context-stroke;stroke-width:1pt"
       d="M 5.77,0 -2.88,5 V -5 Z"
       id="path135" /></marker><rect
     x="134.75626"
     y="78.527023"
     width="47.38282"
     height="69.438248"
     id="rect13-4" /><rect
     x="134.75626"
     y="78.527023"
     width="47.38282"
     height="69.438248"
     id="rect13-4-1" /></defs><sodipodi:namedview
   id="namedview2"
   pagecolor="#ffffff"
   bordercolor="#000000"
   borderopacity="0.25"
   inkscape:showpageshadow="2"
   inkscape:pageopacity="0.0"
   inkscape:pagecheckerboard="0"
   inkscape:deskcolor="#d1d1d1"
   showguides="true"
   inkscape:zoom="1.45875"
   inkscape:cx="450.72836"
   inkscape:cy="290.31705"
   inkscape:window-width="2560"
   inkscape:window-height="1369"
   inkscape:window-x="1192"
   inkscape:window-y="224"
   inkscape:window-maximized="1"
   inkscape:current-layer="svg2"><sodipodi:guide
     position="-378.09309,1027.8722"
     orientation="1,0"
     id="guide2"
     inkscape:locked="false" /><sodipodi:guide
     position="774.36372,164.36245"
     orientation="0,-1"
     id="guide5"
     inkscape:locked="false" /></sodipodi:namedview>

<g
   id="g2"
   transform="matrix(0.76010815,0,0,0.76010815,119.94834,119.94661)">

<g
   transform="matrix(0.1,0,0,-0.1,0,511)"
   id="g1">

<path
   d="M 2886.3,4377.7 C 2750,4297 2465.8,4130 2256.5,4010.9 1459.6,3548.1 1014.1,3133.4 528.3,2401.8 357.4,2140.7 151.9,1779.6 111.6,1664.4 c -32.6,-97.9 3.8,-180.5 109.5,-245.8 44.2,-26.9 497.3,-261.2 1008.1,-518.5 781.5,-395.6 937.1,-468.5 983.1,-457 34.6,9.6 74.9,49.9 122.9,119.1 38.4,59.5 71,103.7 74.9,101.8 23,-25 -190.1,-2302.4 -387.9,-4145.8 -38.4,-364.8 -65.3,-685.5 -57.6,-714.3 28.8,-115.2 -151.7,-109.5 3043.6,-109.5 H 7927 l 53.8,46.1 51.9,46.1 -51.9,697 c -138.3,1826.1 -282.3,3898 -282.3,4067 v 78.7 l 92.2,-96 c 53.8,-55.7 109.5,-96 132.5,-96 38.4,0 445.5,217 1470.9,785.4 387.9,217 495.4,284.2 505,320.7 13.4,53.8 -101.8,278.4 -330.3,645.2 -364.8,585.7 -637.5,939 -927.5,1205.9 -291.9,270.8 -445.5,370.6 -942.8,624.1 -259.2,130.6 -547.3,282.3 -641.4,336 -261.1,151.7 -232.3,149.8 -478.1,28.8 -251.6,-121 -591.4,-238.1 -877.5,-301.5 -176.7,-38.4 -255.4,-44.2 -643.3,-44.2 -386,0 -468.5,5.8 -658.6,44.2 -366.8,73 -781.5,224.7 -1044.6,380.2 -63.4,36.5 -136.3,65.3 -165.1,63.4 -29,0 -165.4,-67.2 -303.6,-147.8 z m 288,-343.8 c 151.7,-313 460.9,-695.1 722,-892.9 167.1,-126.7 468.5,-270.8 681.7,-324.5 220.8,-55.7 620.2,-61.4 821.9,-11.5 531.9,132.5 1012,524.2 1367.2,1117.6 51.9,84.5 94.1,155.5 96,157.5 5.8,9.6 902.5,-474.3 908.3,-491.6 3.8,-9.6 -21.1,-63.4 -55.7,-119.1 -144,-243.9 -259.2,-570.3 -328.4,-933.2 -40.3,-203.5 -44.2,-282.3 -42.2,-783.4 0,-305.3 11.5,-716.2 23,-912.1 13.4,-195.9 46.1,-683.6 72.9,-1084.9 78.8,-1219.3 265,-3633.1 284.2,-3719.5 7.7,-32.6 -132.5,-34.6 -2717.1,-34.6 -1497.8,0 -2724.8,3.8 -2724.8,7.7 0,3.8 42.2,405.2 96,889.1 316.8,2920.7 432.1,4462.6 384,5100.1 -46.1,626 -190.1,1144.5 -414.8,1503.5 -48,78.7 -82.6,149.8 -74.9,157.5 15.4,17.3 821.9,482 835.3,482 5.9,1.8 34.7,-48.1 65.4,-107.7 z m 553.1,-82.5 c 430.1,-167.1 906.3,-240 1492,-224.7 437.8,9.6 610.6,38.4 987,159.4 115.2,38.4 213.1,65.3 217,61.4 13.5,-15.4 -238.1,-314.9 -355.2,-424.4 -326.4,-299.6 -677.8,-453.2 -1042.7,-455.1 -418.6,0 -804.6,169 -1127.2,497.3 -138.3,140.3 -366.8,443.7 -334.2,443.7 7.7,0 82.6,-26.9 163.3,-57.6 z M 2087.5,3394.5 c 142.1,-217 276.5,-626 339.9,-1036.9 19.2,-121 36.5,-386 42.3,-664.4 l 11.5,-462.8 -169,-228.5 C 2220,877.1 2141.3,769.5 2137.5,767.6 2131.7,759.9 516.8,1622.1 490,1649 c -9.6,7.7 34.6,103.7 103.7,222.7 288,495.4 587.6,902.5 869.9,1180.9 159.4,157.5 506.9,437.8 541.5,437.8 11.3,0.1 47.8,-42.1 82.4,-95.9 z m 6112,-55.7 c 311.1,-234.3 616.4,-572.2 917.9,-1019.6 144,-213.1 432.1,-691.3 420.5,-700.9 -9.6,-5.8 -1480.5,-810.3 -1526.6,-833.4 -38.4,-19.2 -51.9,-5.8 -192,184.3 l -149.8,205.5 -23,338 c -46.1,660.6 40.3,1219.3 257.3,1661 69.1,142.1 142.1,259.2 161.3,259.2 5.8,0 67.2,-42.2 134.4,-94.1 z"
   id="path1" />

</g>

</g>
<path
   style="fill:#000000;fill-rule:evenodd;stroke:#000000;stroke-width:5.91685;stroke-linecap:butt;stroke-linejoin:miter;stroke-dasharray:none;stroke-opacity:1;marker-start:url(#Triangle);marker-end:url(#marker3)"
   d="M 887.64411,190.09598 V 814.48726"
   id="path2"
   inkscape:connector-type="polyline"
   inkscape:connector-curvature="0"
   sodipodi:nodetypes="cc" /><path
   style="fill:none;fill-rule:evenodd;stroke:#000000;stroke-width:5.875;stroke-linecap:butt;stroke-linejoin:miter;stroke-dasharray:none;stroke-opacity:1;marker-start:url(#marker3);marker-end:url(#marker3)"
   d="M 356.25836,539.26738 H 648.21862"
   id="path4"
   inkscape:connector-type="polyline"
   inkscape:connector-curvature="0" /><path
   style="fill:none;fill-rule:evenodd;stroke:#000000;stroke-width:3.75;stroke-linecap:butt;stroke-linejoin:miter;stroke-dasharray:none;stroke-opacity:1"
   d="M 633.5281,170.95832 H 887.65512"
   id="path5"
   inkscape:connector-type="polyline"
   inkscape:connector-curvature="0" /><path
   style="fill:none;fill-rule:evenodd;stroke:#000000;stroke-width:3.75;stroke-linecap:butt;stroke-linejoin:miter;stroke-dasharray:none;stroke-opacity:1"
   d="m 722.48591,833.7767 165.29807,0.004"
   id="path6"
   inkscape:connector-type="polyline"
   inkscape:connector-curvature="0" /><path
   style="fill:none;fill-rule:evenodd;stroke:#000000;stroke-width:3.75;stroke-linecap:butt;stroke-linejoin:miter;stroke-dasharray:none;stroke-opacity:1"
   d="M 501.94069,201.45185 V 109.56547"
   id="path7"
   inkscape:connector-type="polyline"
   inkscape:connector-curvature="0" /><path
   style="fill:none;fill-rule:evenodd;stroke:#000000;stroke-width:3.75;stroke-linecap:butt;stroke-linejoin:miter;stroke-dasharray:none;stroke-opacity:1"
   d="M 137.96616,398.71518 73.240387,362.18773"
   id="path11"
   inkscape:connector-type="polyline"
   inkscape:connector-curvature="0"
   sodipodi:nodetypes="cc" /><path
   style="fill:none;fill-rule:evenodd;stroke:#000000;stroke-width:5.875;stroke-linecap:round;stroke-linejoin:miter;stroke-dasharray:none;stroke-opacity:1;marker-start:url(#marker3)"
   d="M 483.72579,115.1353 227.67384,184.95659"
   id="path12"
   inkscape:connector-type="polyline"
   inkscape:connector-curvature="0"
   sodipodi:nodetypes="cc" /><path
   style="fill:none;fill-rule:evenodd;stroke:#000000;stroke-width:5.875;stroke-linecap:round;stroke-linejoin:bevel;stroke-dasharray:none;stroke-opacity:1;marker-start:url(#marker3)"
   d="M 86.037983,347.78203 227.67384,184.95659"
   id="path13"
   inkscape:connector-type="polyline"
   inkscape:connector-curvature="0"
   sodipodi:nodetypes="cc" /><path
   style="font-size:53.3333px;line-height:1;font-family:Arial;-inkscape-font-specification:Arial;text-align:center;text-anchor:middle;white-space:pre;stroke:#000000;stroke-width:2;stroke-linecap:round;stroke-linejoin:bevel"
   d="m 170.54361,106.51548 5.05208,1.27604 q -1.58854,6.22396 -5.72916,9.5052 -4.11458,3.25521 -10.07812,3.25521 -6.17187,0 -10.05208,-2.5 -3.85416,-2.52604 -5.88541,-7.29166 -2.00521,-4.76562 -2.00521,-10.23437 0,-5.963538 2.26563,-10.390619 2.29166,-4.453122 6.48437,-6.744788 4.21875,-2.317707 9.27083,-2.317707 5.72916,0 9.63541,2.916665 3.90624,2.916665 5.4427,8.20312 l -4.97395,1.171875 q -1.32813,-4.166664 -3.85417,-6.067705 -2.52604,-1.90104 -6.35416,-1.90104 -4.40104,0 -7.36979,2.109373 -2.9427,2.109374 -4.14062,5.67708 -1.19792,3.541665 -1.19792,7.317706 0,4.86979 1.40625,8.51562 1.43229,3.61979 4.42708,5.41666 2.99479,1.79688 6.48437,1.79688 4.24479,0 7.1875,-2.44792 2.94271,-2.44791 3.98437,-7.26562 z"
   id="text13"
   transform="matrix(1.25,0,0,1.25,10.169683,22.202239)"
   aria-label="C" /><path
   d="M 144.56707,119.90089 V 81.723828 h 14.3229 q 4.375,0 7.00521,1.171874 2.65625,1.145833 4.14062,3.567706 1.51042,2.395832 1.51042,5.026039 0,2.447915 -1.32813,4.609372 -1.32812,2.161457 -4.01041,3.489581 3.46354,1.01562 5.31249,3.46354 1.875,2.44792 1.875,5.78125 0,2.68229 -1.14583,4.99999 -1.11979,2.29167 -2.78646,3.54167 -1.66666,1.25 -4.1927,1.90104 -2.5,0.625 -6.14583,0.625 z m 5.05208,-22.135405 h 8.2552 q 3.35937,0 4.8177,-0.442708 1.92709,-0.572917 2.89063,-1.901041 0.98958,-1.328124 0.98958,-3.333331 0,-1.901041 -0.91146,-3.333331 -0.91145,-1.458333 -2.60416,-1.979166 -1.69271,-0.546875 -5.80729,-0.546875 h -7.6302 z m 0,17.630195 h 9.5052 q 2.44791,0 3.4375,-0.18229 1.74479,-0.3125 2.91666,-1.04166 1.17188,-0.72917 1.92708,-2.10938 0.75521,-1.40625 0.75521,-3.22916 0,-2.13542 -1.09375,-3.69792 -1.09375,-1.58854 -3.04687,-2.21354 -1.92708,-0.65104 -5.57291,-0.65104 h -8.82812 z"
   id="text13-5"
   style="font-size:53.3333px;line-height:1;font-family:Arial;-inkscape-font-specification:Arial;text-align:center;white-space:pre;stroke:#000000;stroke-width:2;stroke-linecap:round;stroke-linejoin:bevel"
   transform="matrix(1.25,0,0,1.25,303.09586,373.14127)"
   aria-label="B" /><path
   d="m 140.58269,119.90089 14.66145,-38.177062 h 5.44271 l 15.62499,38.177062 h -5.75521 l -4.45312,-11.56249 h -15.96353 l -4.19271,11.56249 z m 11.01562,-15.67708 h 12.9427 l -3.98437,-10.572906 q -1.82292,-4.817706 -2.70833,-7.916662 -0.72917,3.671873 -2.05729,7.291662 z"
   id="text13-5-1"
   style="font-size:53.3333px;line-height:1;font-family:Arial;-inkscape-font-specification:Arial;text-align:center;white-space:pre;stroke:#000000;stroke-width:2;stroke-linecap:round;stroke-linejoin:bevel"
   transform="matrix(1.25,0,0,1.25,731.37599,372.87628)"
   aria-label="A" /></svg>
